# xmcd CD database file
#
# Track frame offsets:
#	150
#	15411
#	26757
#	36479
#	47089
#	63517
#	78382
#	93803
#	105915
#	118840
#	134424
#	140288
#	151575
#	165552
#	183170
#	196630
#	210172
#	219849
#	230030
#	242946
#	258426
#	272305
#	280948
#	295787
#	310715
#
# Disc length: 4319 seconds
#
# Revision: 3
# Processed by: cddbd v1.5.2PL0 Copyright (c) Steve Scherf et al.
# Submitted via: CDex 1.70beta2
#
DISCID=4a10dd19
DTITLE=Various Artist - 012 - Top Country - Sunday In Nashville
DYEAR=1996
DGENRE=Country
TTITLE0=Ray Price - The Old Rugged Cross
TTITLE1=Porter Wagoner - What Would You Do (If Jesus Came To Your House?)
TTITLE2=Skeeter Davis - Turn Your Radio On
TTITLE3=Don Gibson - There Is Power In The Blood
TTITLE4=Jim Ed Brown - Whispering Hope
TTITLE5=Connie Smith - Jesus Is Your Ticket To Heaven
TTITLE6=Lee Greenwood - Amen
TTITLE7=Johnny Russell - Softly And Tenderly
TTITLE8=Patsy Cline - Just A Closer Walk With Thee
TTITLE9=Margo Smith - You Light Up My Life
TTITLE10=Narvel Felts - Rock Of Ages
TTITLE11=Jeanne Pruett - Standing On The Promises
TTITLE12=Johnny Darrell - Little Delta Church
TTITLE13=Lee Greenwood - One Day At A Time
TTITLE14=Ray Price - What A Freind We Have In Jesus
TTITLE15=Lacy J Dalton - Life's Railway To Heaven
TTITLE16=Merle Kilgore - In The Sweet Bye And Bye
TTITLE17=David Houston - Church In The Wildwood
TTITLE18=Jeanne Pruett - Uncloudy Day
TTITLE19=Jack Greene - Why Me, Lord?
TTITLE20=Johnny Russell - Baptism Of Jesse Taylor
TTITLE21=Carl and Pearl Butler - Leaning On The Everlasting Arms
TTITLE22=Sandy Posey - Put Your Hand In The Hand
TTITLE23=Kenny Price - Peace In The Valley
TTITLE24=Lee Greenwood - Amazing Grace
EXTD=YEAR: 1996
EXTT0=
EXTT1=
EXTT2=
EXTT3=
EXTT4=
EXTT5=
EXTT6=
EXTT7=
EXTT8=
EXTT9=
EXTT10=
EXTT11=
EXTT12=
EXTT13=
EXTT14=
EXTT15=
EXTT16=
EXTT17=
EXTT18=
EXTT19=
EXTT20=
EXTT21=
EXTT22=
EXTT23=
EXTT24=
PLAYORDER=
